<svg width="58" height="58" viewBox="0 0 58 58" fill="none" xmlns="http://www.w3.org/2000/svg">
<path d="M25.3422 37.2708C24.99 37.6355 24.7951 38.1238 24.7995 38.6307C24.8039 39.1377 25.0073 39.6226 25.3657 39.981C25.7242 40.3395 26.2091 40.5428 26.716 40.5472C27.2229 40.5516 27.7113 40.3567 28.0759 40.0046L38.3883 29.6535C38.4783 29.5637 38.5497 29.457 38.5985 29.3396C38.6472 29.2222 38.6723 29.0963 38.6723 28.9691C38.6723 28.842 38.6472 28.716 38.5985 28.5986C38.5497 28.4812 38.4783 28.3745 38.3883 28.2847L28.0759 17.9375C27.7113 17.5853 27.2229 17.3905 26.716 17.3949C26.2091 17.3993 25.7242 17.6026 25.3657 17.9611C25.0073 18.3195 24.8039 18.8044 24.7995 19.3113C24.7951 19.8182 24.99 20.3066 25.3422 20.6712L31.7067 27.0667H5.80003C5.28728 27.0667 4.79553 27.2704 4.43296 27.633C4.07039 27.9955 3.8667 28.4873 3.8667 29C3.8667 29.5128 4.07039 30.0045 4.43296 30.3671C4.79553 30.7297 5.28728 30.9334 5.80003 30.9334H31.7067L25.3422 37.2708ZM46.4 3.8667H21.2667C20.7539 3.8667 20.2622 4.07039 19.8996 4.43296C19.5371 4.79553 19.3334 5.28728 19.3334 5.80003C19.3334 6.31278 19.5371 6.80454 19.8996 7.16711C20.2622 7.52968 20.7539 7.73337 21.2667 7.73337H44.4667C44.9795 7.73337 45.4712 7.93706 45.8338 8.29963C46.1963 8.6622 46.4 9.15395 46.4 9.6667V48.3334C46.4 48.8461 46.1963 49.3379 45.8338 49.7004C45.4712 50.063 44.9795 50.2667 44.4667 50.2667H20.3C19.7873 50.2667 19.2955 50.4704 18.933 50.833C18.5704 51.1955 18.3667 51.6873 18.3667 52.2C18.3667 52.7128 18.5704 53.2045 18.933 53.5671C19.2955 53.9297 19.7873 54.1334 20.3 54.1334H46.4C47.4255 54.1334 48.409 53.726 49.1342 53.0009C49.8593 52.2757 50.2667 51.2922 50.2667 50.2667V7.73337C50.2667 6.70786 49.8593 5.72436 49.1342 4.99922C48.409 4.27408 47.4255 3.8667 46.4 3.8667Z" fill="black"/>
</svg>
